<?xml version="1.0" encoding="UTF-8"?>
<svg xmlns="http://www.w3.org/2000/svg" xmlns:xlink="http://www.w3.org/1999/xlink" width="595pt" height="842pt" viewBox="0 0 595 842" version="1.1">
<g id="surface1">
<rect x="0" y="0" width="595" height="842" style="fill:rgb(21.568627%,41.960784%,54.901961%);fill-opacity:1;stroke:none;"/>
<path style="fill:none;stroke-width:2;stroke-linecap:butt;stroke-linejoin:miter;stroke:rgb(70.588235%,82.352941%,85.098039%);stroke-opacity:1;stroke-miterlimit:10;" d="M 54.332031 147.25 L 66.332031 136.25 L 83.332031 88.25 L 37.332031 67.25 L 172.332031 72.25 L 102.332031 66.25 L 117.332031 70.25 L 127.332031 176.25 "/>
<path style="fill:none;stroke-width:2;stroke-linecap:butt;stroke-linejoin:miter;stroke:rgb(70.588235%,82.352941%,85.098039%);stroke-opacity:1;stroke-miterlimit:10;" d="M 54.332031 147.25 C 62.210938 140.027344 68.199219 130.980469 71.769531 120.90625 L 66.453125 135.914062 C 76.003906 108.941406 63.367188 79.132812 37.332031 67.25 L 83.332031 88.25 C 78.980469 86.261719 76.640625 81.480469 77.746094 76.824219 C 78.847656 72.171875 83.085938 68.945312 87.867188 69.121094 L 102.125 69.648438 C 104.339844 69.730469 104.542969 66.4375 102.332031 66.25 L 117.800781 67.574219 C 116.140625 67.433594 115.726562 69.820312 117.332031 70.25 L 102.332031 66.25 C 111.347656 68.652344 117.914062 76.417969 118.792969 85.707031 L 119.957031 98.046875 C 121.527344 114.710938 114.320312 130.992188 100.929688 141.035156 C 87.539062 151.074219 69.886719 153.429688 54.332031 147.25 L 69.460938 153.261719 C 66.195312 151.960938 63.828125 149.078125 63.191406 145.621094 C 62.554688 142.164062 63.742188 138.625 66.332031 136.25 L 54.332031 147.25 "/>
<path style="fill:none;stroke-width:2;stroke-linecap:butt;stroke-linejoin:miter;stroke:rgb(70.588235%,82.352941%,85.098039%);stroke-opacity:1;stroke-miterlimit:10;" d="M 352 113.25 L 277 114.25 L 233 52.25 L 362 133.25 L 259 137.25 L 363 100.25 L 333 161.25 L 366 161.25 L 239 170.25 "/>
<path style="fill:none;stroke-width:2;stroke-linecap:butt;stroke-linejoin:miter;stroke:rgb(70.588235%,82.352941%,85.098039%);stroke-opacity:1;stroke-miterlimit:10;" d="M 329.5 113.550781 C 296.625 113.988281 265.640625 98.242188 246.613281 71.433594 L 277 114.25 C 272.824219 108.363281 273.382812 100.347656 278.34375 95.101562 C 283.300781 89.855469 291.273438 88.839844 297.386719 92.679688 L 274.703125 78.4375 C 286.535156 85.867188 292.148438 100.136719 288.542969 113.636719 C 284.9375 127.132812 272.960938 136.707031 259 137.25 L 362 133.25 C 354.230469 133.550781 347.40625 128.136719 345.9375 120.503906 C 344.464844 112.867188 348.789062 105.304688 356.113281 102.699219 L 298.953125 123.035156 C 309.542969 119.269531 321.359375 122.292969 328.835938 130.683594 C 336.316406 139.078125 337.960938 151.164062 333 161.25 L 347.5625 131.636719 C 344.433594 138.003906 344.808594 145.539062 348.558594 151.5625 C 352.308594 157.585938 358.902344 161.25 366 161.25 L 333 161.25 C 334.503906 161.25 334.582031 163.476562 333.082031 163.582031 L 365.246094 161.304688 C 353.167969 162.160156 342.160156 154.375 338.941406 142.703125 C 335.722656 131.027344 341.1875 118.703125 352 113.25 L 285.03125 147.03125 C 292.230469 143.398438 295.972656 135.277344 294.050781 127.445312 C 292.132812 119.613281 285.0625 114.140625 277 114.25 L 329.5 113.550781 "/>
<path style="fill:none;stroke-width:2;stroke-linecap:butt;stroke-linejoin:miter;stroke:rgb(70.588235%,82.352941%,85.098039%);stroke-opacity:1;stroke-miterlimit:10;" d="M 437.667969 122.25 L 430.667969 117.25 L 505.667969 139.25 L 541.667969 130.25 L 453.667969 111.25 L 551.667969 128.25 L 526.667969 169.25 L 450.667969 138.25 L 489.667969 141.25 L 543.667969 150.25 L 484.667969 128.25 L 530.667969 148.25 L 443.667969 181.25 L 478.667969 147.25 L 460.667969 168.25 L 429.667969 68.25 L 529.667969 78.25 L 424.667969 117.25 L 426.667969 164.25 L 428.667969 111.25 "/>
<path style="fill:none;stroke-width:2;stroke-linecap:butt;stroke-linejoin:miter;stroke:rgb(70.588235%,82.352941%,85.098039%);stroke-opacity:1;stroke-miterlimit:10;" d="M 437.667969 122.25 C 436.332031 121.296875 437.347656 119.210938 438.921875 119.671875 L 479.609375 131.605469 C 496.671875 136.613281 514.761719 136.976562 532.011719 132.664062 L 505.667969 139.25 C 509.5625 138.277344 512.277344 134.742188 512.210938 130.726562 C 512.148438 126.710938 509.320312 123.265625 505.394531 122.417969 L 541.667969 130.25 C 539.316406 129.742188 540 126.226562 542.371094 126.636719 L 504.351562 120.042969 C 515.007812 121.890625 524.058594 128.894531 528.527344 138.742188 C 532.992188 148.59375 532.296875 160.015625 526.667969 169.25 L 551.667969 128.25 C 537.257812 151.882812 507.832031 161.566406 482.203125 151.113281 L 486.886719 153.023438 C 484.09375 151.882812 482.546875 148.882812 483.238281 145.945312 C 483.933594 143.011719 486.660156 141.019531 489.667969 141.25 L 485.257812 140.910156 C 488.195312 141.136719 491.121094 141.492188 494.027344 141.976562 L 489.667969 141.25 C 495.957031 142.296875 498.347656 133.351562 492.371094 131.125 L 531.664062 145.773438 C 530.042969 145.167969 529.078125 147.558594 530.667969 148.25 L 484.667969 128.25 C 492.277344 131.558594 497.125 139.148438 496.929688 147.445312 C 496.730469 155.746094 491.527344 163.097656 483.765625 166.039062 L 489.289062 163.945312 C 484.8125 165.644531 479.753906 163.964844 477.183594 159.921875 C 474.609375 155.878906 475.230469 150.589844 478.667969 147.25 L 458.828125 166.523438 C 459.980469 165.402344 461.714844 167.027344 460.667969 168.25 L 478.667969 147.25 C 475.046875 151.472656 469.417969 153.394531 463.972656 152.269531 C 458.527344 151.140625 454.125 147.144531 452.476562 141.832031 L 459.425781 164.242188 C 452.8125 142.910156 457.332031 119.683594 471.457031 102.386719 C 485.585938 85.089844 507.445312 76.027344 529.667969 78.25 L 429.667969 68.25 C 440.445312 69.328125 449.058594 77.699219 450.441406 88.445312 C 451.824219 99.191406 445.613281 109.46875 435.457031 113.242188 L 468.765625 100.871094 C 442.476562 110.636719 425.472656 136.230469 426.667969 164.25 L 424.667969 117.25 C 424.769531 119.667969 428.347656 119.65625 428.441406 117.242188 L 428.128906 125.453125 C 428.316406 120.503906 434.53125 118.417969 437.667969 122.25 L 432.21875 115.59375 C 433.066406 116.628906 431.753906 118.027344 430.667969 117.25 L 437.667969 122.25 "/>
<path style="fill:none;stroke-width:2;stroke-linecap:butt;stroke-linejoin:miter;stroke:rgb(70.588235%,82.352941%,85.098039%);stroke-opacity:1;stroke-miterlimit:10;" d="M 150.332031 338.75 L 69.332031 368.75 L 65.332031 385.75 L 163.332031 262.75 L 99.332031 258.75 L 158.332031 264.75 L 37.332031 380.75 L 150.332031 340.75 L 64.332031 299.75 L 41.332031 300.75 L 88.332031 297.75 L 57.332031 341.75 L 58.332031 277.75 "/>
<path style="fill:none;stroke-width:2;stroke-linecap:butt;stroke-linejoin:miter;stroke:rgb(70.588235%,82.352941%,85.098039%);stroke-opacity:1;stroke-miterlimit:10;" d="M 85.710938 362.683594 C 75.480469 366.472656 67.832031 375.132812 65.332031 385.75 L 69.332031 368.75 C 68.375 372.824219 73.609375 375.363281 76.214844 372.089844 L 123.375 312.902344 C 131.132812 303.164062 132.832031 289.914062 127.777344 278.535156 C 122.726562 267.152344 111.761719 259.527344 99.332031 258.75 L 158.523438 262.449219 C 157.015625 262.355469 156.832031 264.597656 158.332031 264.75 L 99.332031 258.75 C 109.960938 259.832031 118.992188 266.992188 122.46875 277.09375 C 125.949219 287.195312 123.234375 298.398438 115.523438 305.789062 L 123.863281 297.796875 C 115.085938 306.210938 113.375 319.609375 119.753906 329.960938 C 126.132812 340.3125 138.871094 344.808594 150.332031 340.75 L 60.519531 372.542969 C 75.5625 367.21875 85.914062 353.355469 86.75 337.417969 C 87.585938 321.484375 78.738281 306.617188 64.332031 299.75 L 85.113281 309.65625 C 71.46875 303.152344 56.4375 300.09375 41.332031 300.75 L 64.332031 299.75 C 64.023438 299.761719 64 299.304688 64.308594 299.285156 L 41.332031 300.75 C 49.996094 300.195312 58.210938 304.664062 62.449219 312.242188 C 66.691406 319.816406 66.207031 329.152344 61.207031 336.25 L 88.332031 297.75 C 84.140625 303.703125 76.554688 306.226562 69.628906 303.972656 C 62.707031 301.71875 58.058594 295.214844 58.175781 287.933594 L 57.332031 341.75 C 57.535156 328.957031 64.699219 317.289062 76.019531 311.324219 C 87.339844 305.359375 101.015625 306.050781 111.679688 313.121094 L 78.34375 291.015625 C 92.113281 300.148438 99.589844 316.238281 97.6875 332.648438 C 95.785156 349.058594 84.828125 363.011719 69.332031 368.75 L 85.710938 362.683594 "/>
<path style="fill:none;stroke-width:2;stroke-linecap:butt;stroke-linejoin:miter;stroke:rgb(70.588235%,82.352941%,85.098039%);stroke-opacity:1;stroke-miterlimit:10;" d="M 298 386.75 L 248 250.75 L 329 256.75 L 248 285.75 L 327 274.75 L 308 296.75 L 255 341.75 L 351 253.75 L 243 296.75 L 260 312.75 L 278 311.75 L 335 349.75 L 257 276.75 L 341 335.75 L 229 341.75 L 282 324.75 L 272 359.75 L 301 259.75 "/>
<path style="fill:none;stroke-width:2;stroke-linecap:butt;stroke-linejoin:miter;stroke:rgb(70.588235%,82.352941%,85.098039%);stroke-opacity:1;stroke-miterlimit:10;" d="M 276.027344 326.984375 C 269.890625 310.289062 272.652344 291.621094 283.363281 277.421875 C 294.074219 263.222656 311.261719 255.4375 329 256.75 L 248 250.75 C 256.109375 251.351562 262.695312 257.542969 263.789062 265.601562 C 264.882812 273.660156 260.1875 281.386719 252.53125 284.128906 L 323.09375 258.863281 C 319.125 260.285156 316.875 264.476562 317.882812 268.570312 C 318.886719 272.660156 322.824219 275.332031 327 274.75 L 298.207031 278.757812 C 302.722656 278.128906 307.152344 280.363281 309.328125 284.367188 C 311.507812 288.367188 310.976562 293.300781 308 296.75 L 313.058594 290.890625 C 309.691406 294.792969 306.027344 298.425781 302.101562 301.757812 L 308 296.75 C 306.683594 297.867188 304.976562 295.9375 306.253906 294.769531 L 265.308594 332.300781 C 272.898438 325.339844 274.4375 313.953125 268.964844 305.230469 C 263.492188 296.507812 252.566406 292.941406 243 296.75 L 264.6875 288.113281 C 259.96875 289.992188 256.535156 294.152344 255.585938 299.144531 C 254.636719 304.136719 256.300781 309.269531 260 312.75 L 246.871094 300.394531 C 255.253906 308.285156 266.507812 312.386719 278 311.75 L 260 312.75 C 271.683594 312.101562 283.261719 315.257812 293 321.75 L 278 311.75 C 280.441406 313.378906 283.726562 312.859375 285.550781 310.558594 C 287.371094 308.257812 287.125 304.945312 284.984375 302.9375 L 331.945312 346.890625 C 329.1875 344.308594 328.894531 340.035156 331.277344 337.101562 C 333.660156 334.167969 337.90625 333.578125 341 335.75 L 257 276.75 C 269.382812 285.449219 274.890625 301.039062 270.71875 315.585938 C 266.542969 330.132812 253.609375 340.433594 238.496094 341.242188 L 284.578125 338.773438 C 280.972656 338.964844 277.78125 336.449219 277.125 332.894531 C 276.472656 329.339844 278.558594 325.855469 282 324.75 L 247.339844 335.867188 C 254.175781 333.675781 261.667969 335.425781 266.824219 340.417969 C 271.984375 345.414062 273.972656 352.84375 272 359.75 L 282 324.75 C 281.972656 324.84375 282.113281 324.882812 282.136719 324.789062 L 272 359.75 C 273.894531 353.214844 280.34375 349.101562 287.066406 350.140625 C 293.792969 351.175781 298.703125 357.039062 298.542969 363.839844 L 301 259.75 C 300.726562 271.351562 292.246094 281.117188 280.796875 283.015625 C 269.347656 284.914062 258.167969 278.410156 254.164062 267.515625 L 276.027344 326.984375 "/>
<path style="fill:none;stroke-width:2;stroke-linecap:butt;stroke-linejoin:miter;stroke:rgb(70.588235%,82.352941%,85.098039%);stroke-opacity:1;stroke-miterlimit:10;" d="M 456.667969 322.75 L 534.667969 260.75 L 516.667969 341.75 L 533.667969 346.75 L 496.667969 372.75 L 455.667969 263.75 L 455.667969 261.75 L 431.667969 281.75 L 430.667969 352.75 L 531.667969 305.75 L 448.667969 277.75 L 524.667969 323.75 L 524.667969 291.75 L 464.667969 294.75 L 438.667969 315.75 L 432.667969 341.75 L 523.667969 317.75 "/>
<path style="fill:none;stroke-width:2;stroke-linecap:butt;stroke-linejoin:miter;stroke:rgb(70.588235%,82.352941%,85.098039%);stroke-opacity:1;stroke-miterlimit:10;" d="M 469.710938 312.382812 C 479.453125 304.636719 493.015625 303.871094 503.566406 310.472656 C 514.117188 317.070312 519.367188 329.601562 516.667969 341.75 L 520.511719 324.453125 C 518.347656 334.1875 524.097656 343.9375 533.667969 346.75 L 516.667969 341.75 C 519.8125 342.675781 522.152344 345.320312 522.6875 348.558594 C 523.21875 351.796875 521.851562 355.050781 519.167969 356.9375 L 533.667969 346.75 C 524.804688 352.980469 513.554688 354.753906 503.203125 351.5625 C 492.851562 348.367188 484.558594 340.5625 480.746094 330.421875 L 456.371094 265.621094 C 455.90625 264.382812 455.667969 263.074219 455.667969 261.75 L 455.667969 263.75 C 455.667969 262.957031 454.742188 262.523438 454.128906 263.03125 L 455.667969 261.75 C 440.433594 274.445312 431.507812 293.160156 431.226562 312.988281 L 431.667969 281.75 C 431.449219 297.085938 439.132812 311.457031 452.007812 319.792969 C 464.882812 328.128906 481.140625 329.261719 495.042969 322.792969 L 452.25 342.707031 C 465.238281 336.664062 473.238281 323.320312 472.449219 309.015625 C 471.660156 294.710938 462.242188 282.328125 448.667969 277.75 L 531.667969 305.75 C 527.015625 304.179688 521.925781 306.363281 519.859375 310.816406 C 517.789062 315.269531 519.40625 320.566406 523.605469 323.105469 L 497.289062 307.179688 C 502.859375 310.550781 509.816406 310.660156 515.488281 307.460938 C 521.15625 304.265625 524.667969 298.261719 524.667969 291.75 L 524.667969 323.75 C 524.667969 315.414062 521.246094 307.441406 515.207031 301.695312 C 509.167969 295.949219 501.03125 292.933594 492.707031 293.347656 L 497.179688 293.125 C 476.050781 294.179688 455.800781 301.910156 439.339844 315.207031 L 459.425781 298.984375 C 445.976562 309.847656 436.554688 324.902344 432.667969 341.75 L 438.667969 315.75 C 437.398438 321.246094 439.097656 327.007812 443.148438 330.9375 C 447.199219 334.863281 453.011719 336.382812 458.46875 334.945312 L 458.703125 334.882812 C 461.789062 334.070312 463.746094 331.039062 463.21875 327.886719 C 462.691406 324.738281 459.851562 322.511719 456.667969 322.75 L 523.667969 317.75 C 514.613281 318.425781 506.179688 313.117188 502.871094 304.667969 C 499.566406 296.214844 502.15625 286.589844 509.261719 280.945312 L 469.710938 312.382812 "/>
<path style="fill:none;stroke-width:2;stroke-linecap:butt;stroke-linejoin:miter;stroke:rgb(70.588235%,82.352941%,85.098039%);stroke-opacity:1;stroke-miterlimit:10;" d="M 43.332031 579.25 L 101.332031 481.25 L 80.332031 467.25 L 37.332031 525.25 L 38.332031 527.25 L 120.332031 493.25 L 84.332031 562.25 L 125.332031 556.25 L 148.332031 519.25 L 162.332031 494.25 L 53.332031 534.25 L 141.332031 541.25 L 141.332031 506.25 L 44.332031 519.25 L 112.332031 504.25 L 171.332031 493.25 L 59.332031 590.25 "/>
<path style="fill:none;stroke-width:2;stroke-linecap:butt;stroke-linejoin:miter;stroke:rgb(70.588235%,82.352941%,85.098039%);stroke-opacity:1;stroke-miterlimit:10;" d="M 88.480469 502.96875 C 95.6875 490.789062 92.109375 475.101562 80.332031 467.25 L 101.332031 481.25 C 89.570312 473.40625 73.722656 476.167969 65.300781 487.523438 L 38.664062 523.453125 C 37.847656 524.554688 37.71875 526.023438 38.332031 527.25 L 37.332031 525.25 C 37.898438 526.375 39.234375 526.875 40.398438 526.394531 L 48.441406 523.058594 C 59.425781 518.503906 72.085938 521.308594 80.117188 530.078125 C 88.148438 538.847656 89.832031 551.707031 84.332031 562.25 L 103.5 525.511719 C 99.820312 532.5625 100.40625 541.078125 105.011719 547.5625 C 109.613281 554.046875 117.464844 557.402344 125.332031 556.25 L 84.332031 562.25 C 110.332031 558.445312 133.335938 543.375 147.210938 521.058594 L 147.128906 521.191406 C 147.929688 519.898438 148.707031 518.585938 149.449219 517.257812 L 148.332031 519.25 C 150.5 515.378906 150.027344 510.570312 147.152344 507.195312 C 144.273438 503.820312 139.597656 502.59375 135.433594 504.121094 L 136.207031 503.835938 C 127.679688 506.964844 122.484375 515.609375 123.714844 524.605469 C 124.949219 533.605469 132.28125 540.53125 141.332031 541.25 L 106.445312 538.476562 C 115.433594 539.191406 124.316406 536.117188 130.941406 529.996094 C 137.566406 523.878906 141.332031 515.269531 141.332031 506.25 L 141.332031 541.25 C 141.332031 532.417969 137.519531 524.019531 130.875 518.203125 C 124.230469 512.390625 115.394531 509.726562 106.644531 510.898438 L 113.351562 510 C 109.648438 510.496094 108.683594 505.054688 112.332031 504.25 L 110.730469 504.601562 C 111.800781 504.367188 112.871094 504.148438 113.945312 503.949219 L 112.332031 504.25 C 119.554688 502.902344 126.78125 506.5625 129.972656 513.179688 C 133.160156 519.796875 131.519531 527.730469 125.964844 532.542969 L 74.011719 577.539062 C 65.367188 585.023438 52.757812 585.726562 43.332031 579.25 L 59.332031 590.25 C 50.328125 584.058594 47.65625 571.945312 53.222656 562.539062 L 88.480469 502.96875 "/>
<path style="fill:none;stroke-width:2;stroke-linecap:butt;stroke-linejoin:miter;stroke:rgb(70.588235%,82.352941%,85.098039%);stroke-opacity:1;stroke-miterlimit:10;" d="M 250 498.25 L 314 462.25 L 328 473.25 L 328 542.25 L 306 516.25 "/>
<path style="fill:none;stroke-width:2;stroke-linecap:butt;stroke-linejoin:miter;stroke:rgb(70.588235%,82.352941%,85.098039%);stroke-opacity:1;stroke-miterlimit:10;" d="M 298.480469 470.980469 C 307.875 465.695312 319.527344 466.589844 328 473.25 L 314 462.25 C 322.839844 469.195312 328 479.8125 328 491.054688 L 328 508.191406 C 328 513.425781 324.730469 518.105469 319.816406 519.90625 C 314.898438 521.707031 309.382812 520.246094 306 516.25 L 324.488281 538.101562 C 312.40625 523.820312 296.558594 513.214844 278.75 507.492188 L 306 516.25 C 296.277344 513.125 289.332031 504.539062 288.304688 494.378906 C 287.277344 484.21875 292.367188 474.417969 301.269531 469.410156 L 298.480469 470.980469 "/>
<path style="fill:none;stroke-width:2;stroke-linecap:butt;stroke-linejoin:miter;stroke:rgb(0%,0%,0%);stroke-opacity:1;stroke-miterlimit:10;" d="M 444.667969 523.25 L 548.667969 470.25 L 501.667969 456.25 L 496.667969 477.25 L 536.667969 585.25 L 443.667969 477.25 L 460.667969 475.25 L 430.667969 555.25 L 555.667969 591.25 L 512.667969 529.25 L 483.667969 551.25 L 493.667969 588.25 L 425.667969 461.25 L 556.667969 455.25 "/>
<path style="fill:none;stroke-width:2;stroke-linecap:butt;stroke-linejoin:miter;stroke:rgb(70.588235%,82.352941%,85.098039%);stroke-opacity:1;stroke-miterlimit:10;" d="M 155.332031 770.75 L 76.332031 747.75 L 77.332031 708.75 L 57.332031 794.75 L 111.332031 759.75 L 58.332031 768.75 L 108.332031 741.75 L 167.332031 791.75 L 56.332031 679.75 L 66.332031 771.75 L 125.332031 756.75 L 54.332031 730.75 L 46.332031 763.75 L 145.332031 742.75 L 121.332031 689.75 L 69.332031 696.75 L 64.332031 680.75 L 147.332031 795.75 L 69.332031 734.75 "/>
<path style="fill:none;stroke-width:2;stroke-linecap:butt;stroke-linejoin:miter;stroke:rgb(70.588235%,82.352941%,85.098039%);stroke-opacity:1;stroke-miterlimit:10;" d="M 113.789062 758.65625 C 91.714844 752.230469 76.742188 731.734375 77.332031 708.75 L 76.332031 747.75 C 76.457031 742.96875 69.578125 742.089844 68.496094 746.75 L 71.910156 732.070312 C 69.511719 742.386719 73.617188 753.125 82.285156 759.210938 C 90.953125 765.296875 102.445312 765.511719 111.332031 759.75 L 66.222656 788.988281 C 70.636719 786.128906 72.433594 780.558594 70.523438 775.65625 C 68.613281 770.753906 63.519531 767.871094 58.332031 768.75 L 111.332031 759.75 C 107.054688 760.476562 102.878906 758 101.464844 753.894531 C 100.050781 749.792969 101.816406 745.269531 105.636719 743.207031 L 58.332031 768.75 C 88.488281 752.464844 125.539062 756.332031 151.683594 778.488281 L 108.332031 741.75 C 111.605469 744.523438 115.914062 739.867188 112.894531 736.820312 L 121.476562 745.480469 C 111.796875 735.710938 96.996094 733.132812 84.582031 739.046875 C 72.167969 744.960938 64.847656 758.078125 66.332031 771.75 L 59.753906 711.230469 C 61.410156 726.453125 69.585938 740.210938 82.164062 748.941406 C 94.742188 757.675781 110.492188 760.523438 125.332031 756.75 L 66.332031 771.75 C 74.335938 769.714844 80.078125 762.707031 80.5 754.460938 C 80.921875 746.214844 75.921875 738.65625 68.167969 735.816406 L 86.21875 742.425781 C 78.109375 739.457031 69.117188 740.085938 61.5 744.160156 C 53.886719 748.230469 48.367188 755.355469 46.332031 763.75 L 54.332031 730.75 C 52.601562 737.890625 54.660156 745.417969 59.777344 750.6875 C 64.898438 755.957031 72.363281 758.226562 79.550781 756.703125 L 88.417969 754.824219 C 102.28125 751.882812 114.066406 742.816406 120.460938 730.171875 C 126.859375 717.523438 127.179688 702.660156 121.332031 689.75 L 142.976562 737.546875 C 130.132812 709.179688 100.195312 692.59375 69.332031 696.75 L 85.945312 694.511719 C 76.351562 695.804688 67.222656 689.992188 64.332031 680.75 L 69.332031 696.75 C 68.410156 693.800781 72.335938 691.835938 74.144531 694.34375 L 89.382812 715.457031 C 93.480469 721.132812 92.773438 728.953125 87.730469 733.808594 C 82.691406 738.660156 74.84375 739.0625 69.332031 734.75 L 142.773438 792.183594 C 137.828125 788.316406 136.507812 781.390625 139.679688 775.972656 C 142.855469 770.558594 149.542969 768.328125 155.332031 770.75 L 79.433594 738.980469 C 84.851562 741.246094 81.96875 749.390625 76.332031 747.75 L 113.789062 758.65625 "/>
<path style="fill:none;stroke-width:2;stroke-linecap:butt;stroke-linejoin:miter;stroke:rgb(70.588235%,82.352941%,85.098039%);stroke-opacity:1;stroke-miterlimit:10;" d="M 258 661.75 L 334 688.75 L 323 793.75 L 331 752.75 L 263 723.75 L 348 713.75 L 286 708.75 L 352 757.75 L 304 745.75 L 291 776.75 L 334 693.75 L 260 790.75 L 264 695.75 L 331 784.75 L 264 724.75 L 270 731.75 "/>
<path style="fill:none;stroke-width:2;stroke-linecap:butt;stroke-linejoin:miter;stroke:rgb(70.588235%,82.352941%,85.098039%);stroke-opacity:1;stroke-miterlimit:10;" d="M 259.820312 662.394531 C 303.339844 677.855469 330.609375 721.113281 325.796875 767.046875 L 327.351562 752.203125 C 327.105469 754.546875 330.550781 755.0625 331 752.75 L 323 793.75 C 327.664062 769.839844 314.984375 745.917969 292.574219 736.363281 L 331 752.75 C 322.796875 749.25 317.972656 740.675781 319.246094 731.847656 C 320.515625 723.023438 327.5625 716.15625 336.417969 715.113281 L 286.226562 721.019531 C 289.371094 720.648438 291.726562 717.949219 291.667969 714.78125 C 291.609375 711.613281 289.160156 709.003906 286 708.75 L 348 713.75 C 340.074219 713.109375 332.679688 717.800781 329.882812 725.246094 C 327.085938 732.691406 329.554688 741.085938 335.941406 745.828125 L 312.273438 728.257812 C 316.050781 731.0625 317.324219 736.144531 315.3125 740.398438 C 313.300781 744.648438 308.566406 746.890625 304 745.75 L 336.613281 753.902344 C 317.851562 749.214844 298.476562 758.917969 291 776.75 L 304 745.75 C 303.324219 747.355469 305.660156 748.449219 306.464844 746.902344 L 291 776.75 C 292.941406 773 291.695312 768.390625 288.128906 766.132812 C 284.5625 763.871094 279.863281 764.714844 277.300781 768.070312 L 317.671875 715.152344 C 309.75 725.539062 296.003906 729.582031 283.71875 725.140625 C 271.433594 720.699219 263.449219 708.800781 264 695.75 L 260 790.75 C 260.605469 776.390625 270.167969 763.957031 283.890625 759.6875 C 297.617188 755.417969 312.542969 760.230469 321.1875 771.714844 L 276.90625 712.894531 C 279.632812 716.515625 279.164062 721.613281 275.828125 724.675781 C 272.492188 727.738281 267.375 727.773438 264 724.75 L 270.867188 730.902344 C 270.300781 730.394531 269.503906 731.171875 270 731.75 L 264 724.75 C 265.683594 726.710938 268.878906 725.210938 268.441406 722.664062 L 270 731.75 C 267.503906 717.195312 272.914062 702.40625 284.214844 692.898438 C 295.511719 683.386719 311.007812 680.582031 324.921875 685.523438 L 259.820312 662.394531 "/>
<path style="fill:none;stroke-width:2;stroke-linecap:butt;stroke-linejoin:miter;stroke:rgb(70.588235%,82.352941%,85.098039%);stroke-opacity:1;stroke-miterlimit:10;" d="M 445.667969 720.75 L 544.667969 720.75 L 530.667969 773.75 L 437.667969 683.75 L 442.667969 697.75 L 536.667969 756.75 "/>
<path style="fill:none;stroke-width:2;stroke-linecap:butt;stroke-linejoin:miter;stroke:rgb(70.588235%,82.352941%,85.098039%);stroke-opacity:1;stroke-miterlimit:10;" d="M 489.847656 720.75 C 502.949219 720.75 515.304688 726.832031 523.296875 737.207031 C 531.289062 747.585938 534.011719 761.085938 530.667969 773.75 L 544.667969 720.75 C 541.753906 731.773438 533.21875 740.425781 522.234375 743.488281 C 511.25 746.546875 499.46875 743.558594 491.273438 735.628906 L 448.347656 694.089844 C 445.710938 691.535156 441.429688 694.292969 442.667969 697.75 L 437.667969 683.75 C 440.90625 692.820312 447.101562 700.535156 455.257812 705.652344 L 453.777344 704.726562 C 457.726562 707.203125 459.136719 712.277344 457.03125 716.4375 C 454.925781 720.59375 450 722.464844 445.667969 720.75 L 536.667969 756.75 C 528.339844 753.457031 523.527344 744.707031 525.203125 735.910156 C 526.882812 727.113281 534.574219 720.75 543.527344 720.75 L 489.847656 720.75 "/>
<path style="fill:none;stroke-width:40;stroke-linecap:butt;stroke-linejoin:miter;stroke:rgb(43.921569%,54.901961%,53.72549%);stroke-opacity:1;stroke-miterlimit:10;" d="M 0 0 L 595 0 L 595 842 L 0 842 Z M 0 0 "/>
</g>
</svg>
